<svg width="18" height="20" fill="none" xmlns="http://www.w3.org/2000/svg"><path fill-rule="evenodd" clip-rule="evenodd" d="M9 1.818c-.955 0-1.87.383-2.546 1.065A3.655 3.655 0 0 0 5.4 5.455v2.727h7.2V5.455c0-.965-.38-1.89-1.054-2.572A3.582 3.582 0 0 0 9 1.818Zm5.4 6.364V5.455a5.483 5.483 0 0 0-1.582-3.857A5.373 5.373 0 0 0 9 0a5.373 5.373 0 0 0-3.818 1.598A5.483 5.483 0 0 0 3.6 5.455v2.727h-.9c-1.491 0-2.7 1.22-2.7 2.727v6.364C0 18.779 1.209 20 2.7 20h12.6c1.491 0 2.7-1.221 2.7-2.727v-6.364c0-1.506-1.209-2.727-2.7-2.727h-.9ZM2.7 10c-.497 0-.9.407-.9.91v6.363c0 .502.403.909.9.909h12.6c.497 0 .9-.407.9-.91V10.91a.905.905 0 0 0-.9-.909H2.7Z" fill="#6C7689"/></svg>