<svg width="24" height="16" fill="none" xmlns="http://www.w3.org/2000/svg"><path fill-rule="evenodd" clip-rule="evenodd" d="M24 1.822C24 .604 23.4 0 22.239 0H1.76C1.181 0 .753.163.472.499.154.834 0 1.266 0 1.822v12.355c0 .556.154.978.472 1.324.326.335.744.498 1.29.498h20.477c1.162 0 1.76-.613 1.76-1.822V1.822ZM22.239.288c.962 0 1.452.518 1.452 1.534v12.355c0 1.026-.49 1.535-1.452 1.535H1.76c-.463 0-.817-.144-1.08-.432-.272-.278-.409-.662-.409-1.103V1.822C.272.806.753.288 1.762.288h20.477Z" fill="#315881"/><path fill-rule="evenodd" clip-rule="evenodd" d="M1.924.998c-.39 0-.635.067-.771.211-.118.163-.173.432-.173.825V4.71h22.04V2.034c0-.7-.327-1.036-.98-1.036H1.923Z" fill="#315881"/><path fill-rule="evenodd" clip-rule="evenodd" d="M.98 13.928c0 .71.318 1.074.944 1.074H22.04c.654 0 .98-.365.98-1.074v-2.676H.98v2.676Z" fill="#DFA43B"/><path fill-rule="evenodd" clip-rule="evenodd" d="M8.278 5.852c0 .125-.018.22-.063.288L6.626 9.066l-.1-3.569H3.984l.854.432c.245.163.372.374.372.643l.236 3.789H6.69l2.977-4.864H8.142c.09.087.136.221.136.355Zm10.276-.21.1-.145H17.1c.054.058.073.087.073.106-.019.076-.055.124-.073.182l-2.26 4.355a3.71 3.71 0 0 1-.172.22h1.28l-.064-.143c0-.125.063-.355.2-.681l.272-.537h1.316c.055.45.09.825.109 1.103l-.11.259h1.59l-.237-.365-.471-4.355Zm-.945 2.675h-.944l.808-1.64.136 1.64Zm-3.92-3.069c-.49 0-.909.144-1.28.432-.41.25-.609.566-.609.959 0 .45.145.844.435 1.142l.88.642c.318.24.473.45.473.643a.596.596 0 0 1-.236.47.816.816 0 0 1-.545.183c-.318 0-.862-.24-1.616-.681v.892c.59.374 1.162.566 1.716.566.526 0 .971-.154 1.352-.5.409-.316.609-.69.609-1.102 0-.346-.146-.662-.473-.998l-.844-.643c-.281-.24-.435-.45-.435-.614 0-.374.209-.566.635-.566.29 0 .717.173 1.29.538l.172-.93a2.9 2.9 0 0 0-1.525-.432Zm-3.378 5.113c-.018-.202-.054-.384-.072-.576l1.153-3.933.272-.355h-1.662c.019.086.037.202.055.288 0 .086 0 .192-.018.288L8.886 9.967l-.236.394h1.661Z" fill="#315881"/></svg>