<svg width="20" height="19" fill="none" xmlns="http://www.w3.org/2000/svg"><path fill-rule="evenodd" clip-rule="evenodd" d="M0 .826A.83.83 0 0 1 .833 0h3.334c.397 0 .739.278.817.664l.7 3.466h13.483c.248 0 .483.11.642.3a.82.82 0 0 1 .176.681l-1.334 6.937a2.475 2.475 0 0 1-.885 1.448 2.515 2.515 0 0 1-1.606.547H8.074a2.514 2.514 0 0 1-1.607-.547 2.475 2.475 0 0 1-.884-1.447L4.19 5.154a.813.813 0 0 1-.014-.07l-.693-3.432H.834A.83.83 0 0 1 0 .826Zm6.017 4.957 1.2 5.943c.038.19.143.361.295.483a.838.838 0 0 0 .539.183h8.132a.838.838 0 0 0 .538-.183.825.825 0 0 0 .294-.48l1.144-5.946H6.017Zm-.184 11.565A1.66 1.66 0 0 1 7.5 15.696c.92 0 1.667.74 1.667 1.652A1.66 1.66 0 0 1 7.5 19a1.66 1.66 0 0 1-1.667-1.652Zm9.167 0a1.66 1.66 0 0 1 1.667-1.652c.92 0 1.666.74 1.666 1.652A1.66 1.66 0 0 1 16.667 19 1.66 1.66 0 0 1 15 17.348Z" fill="#6C7689"/></svg>